<svg xmlns="http://www.w3.org/2000/svg" xmlns:xlink="http://www.w3.org/1999/xlink" width="16" height="16" viewBox="0 0 16 16" fill="none"><defs><rect id="path_0" x="0" y="0" width="16" height="16" /></defs><g opacity="1" transform="translate(0 0)  rotate(0 8 8)"><mask id="bg-mask-0" fill="white"><use xlink:href="#path_0"></use></mask><g mask="url(#bg-mask-0)" ><path id="分组 1" fill-rule="evenodd" style="fill:#FFFFFF" transform="translate(0.45944033128408 -0.00006610521182803808)  rotate(0 7.480279834357959 7.478533052605915)" opacity="1" d="M6.51 4.9L14.96 4.9C14.89 4.04 14.47 3.26 13.8 2.73C13.12 2.2 12.26 1.98 11.42 2.13C10.55 0.8 9.08 0 7.5 0C5.92 0 4.44 0.8 3.58 2.13C3.45 2.1 3.32 2.09 3.18 2.09C1.89 2.09 0.73 2.87 0.24 4.06C-0.25 5.25 0.03 6.63 0.94 7.53C1.86 8.44 3.24 8.71 4.43 8.2C6.18 9.77 8.82 9.77 10.57 8.2C11.45 8.58 12.45 8.53 13.3 8.09C14.15 7.64 14.75 6.83 14.93 5.9L6.51 5.9C6.23 5.9 6.01 5.67 6.01 5.4C6.01 5.12 6.23 4.9 6.51 4.9Z M4.06556 10.3001C3.78556 10.3001 3.56556 10.5201 3.56556 10.8001C3.56556 11.0801 3.78556 11.3001 4.06556 11.3001L13.0456 11.3001C13.3156 11.3001 13.5456 11.0801 13.5456 10.8001C13.5456 10.5201 13.3156 10.3001 13.0456 10.3001L4.06556 10.3001Z M10.0286 12.1131L1.04856 12.1131C0.76856 12.1131 0.54856 12.3331 0.54856 12.6131C0.54856 12.8931 0.76856 13.1131 1.04856 13.1131L10.0286 13.1131C10.2986 13.1131 10.5286 12.8931 10.5286 12.6131C10.5286 12.3331 10.2986 12.1131 10.0286 12.1131Z M2.65856 13.9571C2.37856 13.9571 2.15856 14.1771 2.15856 14.4571C2.15856 14.7371 2.37856 14.9571 2.65856 14.9571L11.6386 14.9571C11.9086 14.9571 12.1386 14.7371 12.1386 14.4571C12.1386 14.1771 11.9086 13.9571 11.6386 13.9571L2.65856 13.9571Z " /></g></g></svg>